<svg xmlns="http://www.w3.org/2000/svg" width="22" height="22" viewBox="0 0 22 22" fill="none">
<g id="elements">
<path id="Vector" d="M1.5 11C1.5 6.52166 1.5 4.28249 2.89124 2.89124C4.28249 1.5 6.52166 1.5 11 1.5C15.4783 1.5 17.7175 1.5 19.1088 2.89124C20.5 4.28249 20.5 6.52166 20.5 11C20.5 15.4783 20.5 17.7175 19.1088 19.1088C17.7175 20.5 15.4783 20.5 11 20.5C6.52166 20.5 4.28249 20.5 2.89124 19.1088C1.5 17.7175 1.5 15.4783 1.5 11Z" stroke="white" stroke-width="1.5" stroke-linejoin="round"/>
<path id="Vector 6433" d="M9 9H10" stroke="white" stroke-width="1.5" stroke-linecap="round" stroke-linejoin="round"/>
<path id="Vector 6434" d="M9 14H13" stroke="white" stroke-width="1.5" stroke-linecap="round" stroke-linejoin="round"/>
<path id="Vector 6469" d="M13.9577 10.4622V9.50881C13.9577 7.63614 13.9577 6.69981 13.4825 6.04341C12.5821 4.79972 10.833 5.01409 9.47884 5.01409C8.12474 5.01409 6.37562 4.79972 5.47521 6.04341C5 6.69981 5 7.63614 5 9.5088V12.0059C5 14.3601 5 15.5373 5.72879 16.2686C6.45758 17 7.63055 17 9.97649 17H13.6862C16.285 17 17.3239 15.1725 16.913 12.5687C16.6684 11.0195 15.3315 10.4622 13.9577 10.4622Z" stroke="white" stroke-width="1.5" stroke-linejoin="round"/>
</g>
</svg>