<svg xmlns="http://www.w3.org/2000/svg" width="64" height="64" viewBox="0 0 64 64" fill="none">
<g id="Stadistics">
<path id="Vector" d="M64.0005 5.45557V48.6201C64.0005 50.5288 62.4536 52.0757 60.5449 52.0757H12.1509C10.2422 52.0757 8.69531 50.5288 8.69531 48.6201V5.45557C8.69531 3.54687 10.2422 2 12.1509 2H60.5449C62.4536 2 64.0005 3.54687 64.0005 5.45557Z" fill="#C4E2F2"/>
<path id="Vector_2" d="M15.7539 44.9473H20.2749V52.0757H15.7539V44.9473Z" fill="#83B2C6"/>
<path id="Vector_3" d="M24.71 37.1025H29.2295V52.0757H24.71V37.1025Z" fill="#83B2C6"/>
<path id="Vector_4" d="M63.9995 5.45557V9.58301H8.69434V5.45557C8.69434 3.54687 10.2407 2 12.1499 2H60.5439C62.4526 2 63.9995 3.54687 63.9995 5.45557Z" fill="#83B2C6"/>
<path id="Vector_5" d="M13.2693 7.03368C12.3591 7.03368 11.9495 5.84911 12.6628 5.28319C13.3621 4.72899 14.4084 5.37304 14.2317 6.24413C14.1394 6.69726 13.7327 7.03368 13.2693 7.03368Z" fill="#E5E5E5"/>
<path id="Vector_6" d="M19.9372 7.0337C19.0378 7.0337 18.6208 5.86818 19.3161 5.29542C19.634 5.0337 20.0983 5.00197 20.4499 5.21681C20.8049 5.43409 20.988 5.86964 20.8933 6.27443C20.7902 6.71339 20.3894 7.0337 19.9372 7.0337Z" fill="#E5E5E5"/>
<path id="Vector_7" d="M16.605 7.03369C16.2047 7.03369 15.836 6.78125 15.6905 6.40918C15.5328 6.00586 15.6675 5.53369 16.0128 5.27148C16.7315 4.72607 17.7808 5.41455 17.5547 6.29395C17.4444 6.72217 17.0489 7.03369 16.605 7.03369Z" fill="#E5E5E5"/>
<path id="Vector_8" d="M52.0356 30.6318C52.0356 39.2964 45.0117 46.3203 36.3462 46.3203C33.7837 46.3203 31.3662 45.7056 29.2295 44.6167C27.5181 43.7446 25.9873 42.5664 24.71 41.1543C22.1914 38.3706 20.6582 34.6812 20.6582 30.6318C20.6582 21.9673 27.6816 14.9438 36.3462 14.9438V30.6318L48.7314 21.0015C50.8027 23.6606 52.0356 27.0024 52.0356 30.6318Z" fill="#FF491F"/>
<path id="Vector_9" d="M29.2295 37.1025V44.6167C27.5181 43.7446 25.9873 42.5664 24.71 41.1543V37.1025H29.2295Z" fill="#ED3618"/>
<path id="Vector_10" d="M50.2451 13.7236L37.8594 23.3213V7.6875C42.8931 7.6875 47.375 10.0508 50.2451 13.7236Z" fill="#83B2C6"/>
<path id="Vector_11" d="M52.0347 30.6313C52.0347 35.8623 49.4736 40.4961 45.5366 43.3462L36.3467 30.6313L48.731 21.0005C50.8018 23.6602 52.0347 27.002 52.0347 30.6313Z" fill="#2C92BF"/>
<path id="Vector_12" d="M52.2056 13.7236L39.8203 23.3213V7.6875C44.854 7.6875 49.3359 10.0508 52.2056 13.7236Z" fill="#FF8E1D"/>
<g id="Group">
<path id="Vector_13" d="M0 32.5923H4.521V61.8926H0V32.5923Z" fill="#32CC77"/>
<path id="Vector_14" d="M8.69434 25.9248H13.2148V61.8926H8.69434V25.9248Z" fill="#32CC77"/>
<path id="Vector_15" d="M17.7148 44.9473H22.2358V61.8926H17.7148V44.9473Z" fill="#32CC77"/>
<path id="Vector_16" d="M26.6699 37.103H31.1909V61.8926H26.6699V37.103Z" fill="#32CC77"/>
</g>
<path id="Vector_17" d="M60.6079 48.313H50.2139C49.6724 48.313 49.2334 47.874 49.2334 47.3325C49.2334 46.791 49.6724 46.3521 50.2139 46.3521H60.6074C61.1494 46.3521 61.5884 46.791 61.5884 47.3325C61.5884 47.874 61.1494 48.313 60.6079 48.313Z" fill="#FF491F"/>
<path id="Vector_18" d="M60.6079 44.1631H53.3516C52.8101 44.1631 52.3711 43.7241 52.3711 43.1821C52.3711 42.6406 52.8101 42.2017 53.3516 42.2017H60.6079C61.1494 42.2017 61.5884 42.6406 61.5884 43.1821C61.5884 43.7241 61.1494 44.1631 60.6079 44.1631Z" fill="#FF8E1D"/>
</g>
</svg>